<svg width="2000px" height="1483px"
 viewBox="0.00 0.00 525.99 390.02" xmlns="http://www.w3.org/2000/svg" xmlns:xlink="http://www.w3.org/1999/xlink">
<g id="graph0" class="graph" transform="scale(1.0 1.0) rotate(0) translate(4 386.02)">
<title>ContextMapGraph</title>
<polygon fill="white" stroke="transparent" points="-4,4 -4,-386.02 521.99,-386.02 521.99,4 -4,4"/>
<!-- CargoBookingContext -->
<g id="node1" class="node">
<title>CargoBookingContext</title>
<polygon fill="none" stroke="black" stroke-width="2" points="71.45,-226.46 63.63,-224.62 56.13,-222.7 49,-220.71 42.25,-218.65 35.92,-216.53 30.04,-214.36 24.63,-212.15 19.71,-209.9 15.31,-207.63 11.43,-205.34 8.1,-203.03 5.34,-200.71 3.14,-198.4 1.51,-196.1 0.47,-193.8 0.01,-191.53 0.14,-189.29 0.84,-187.07 2.11,-184.89 3.94,-182.75 6.32,-180.66 9.24,-178.61 12.68,-176.62 16.61,-174.69 21.03,-172.82 25.9,-171.01 31.2,-169.27 36.91,-167.59 43,-165.99 49.44,-164.46 56.2,-163 63.25,-161.62 70.56,-160.32 78.1,-159.1 85.85,-157.96 93.76,-156.9 101.81,-155.93 109.97,-155.04 118.2,-154.24 126.49,-153.52 134.81,-152.9 143.12,-152.36 151.4,-151.91 159.63,-151.55 167.78,-151.28 175.85,-151.11 183.79,-151.03 191.6,-151.05 199.27,-151.16 206.76,-151.36 214.08,-151.67 221.21,-152.07 228.13,-152.57 234.84,-153.17 241.34,-153.87 247.6,-154.67 253.64,-155.57 259.43,-156.57 264.98,-157.66 270.29,-158.86 275.34,-160.15 280.15,-161.54 284.7,-163.02 288.99,-164.6 293.03,-166.26 296.81,-168.02 300.32,-169.85 303.58,-171.77 306.57,-173.76 309.29,-175.83 311.74,-177.97 313.92,-180.16 315.82,-182.42 317.45,-184.72 318.78,-187.07 319.83,-189.46 320.58,-191.88 321.04,-194.32 321.18,-196.78 321.01,-199.25 320.52,-201.72 319.71,-204.18 318.56,-206.62 317.08,-209.04 315.25,-211.42 313.07,-213.77 310.54,-216.06 307.64,-218.29 304.39,-220.45 300.76,-222.54 296.77,-224.54 292.42,-226.45 287.69,-228.26 282.6,-229.97 277.15,-231.56 271.34,-233.03 265.19,-234.38 258.69,-235.6 251.87,-236.68 244.73,-237.62 237.29,-238.43 229.57,-239.08 221.59,-239.59 213.35,-239.95 204.9,-240.15 196.25,-240.21 187.43,-240.12 178.47,-239.88 169.39,-239.48 160.23,-238.95 151.02,-238.27 141.79,-237.45 132.57,-236.5 123.41,-235.41 114.33,-234.2 105.37,-232.87 96.57,-231.42 87.96,-229.87 79.57,-228.21 71.45,-226.46"/>
<text text-anchor="middle" x="172.99" y="-189.28" font-family="sans-serif" font-size="16.00">CargoBookingContext</text>
</g>
<!-- VoyagePlanningContext -->
<g id="node2" class="node">
<title>VoyagePlanningContext</title>
<polygon fill="none" stroke="black" stroke-width="2" points="112.36,-57.16 110.04,-54.35 108.19,-51.54 106.82,-48.73 105.93,-45.94 105.54,-43.18 105.64,-40.45 106.24,-37.77 107.34,-35.15 108.95,-32.59 111.05,-30.12 113.65,-27.72 116.73,-25.42 120.3,-23.22 124.34,-21.12 128.84,-19.14 133.79,-17.27 139.17,-15.53 144.98,-13.9 151.18,-12.41 157.76,-11.04 164.7,-9.81 171.98,-8.71 179.57,-7.74 187.45,-6.9 195.6,-6.19 203.99,-5.61 212.59,-5.16 221.37,-4.83 230.31,-4.63 239.37,-4.54 248.53,-4.57 257.75,-4.71 267.02,-4.95 276.29,-5.3 285.54,-5.75 294.73,-6.29 303.85,-6.92 312.87,-7.63 321.75,-8.43 330.47,-9.31 339,-10.26 347.32,-11.27 355.4,-12.36 363.23,-13.5 370.78,-14.71 378.03,-15.97 384.96,-17.29 391.56,-18.66 397.8,-20.07 403.68,-21.54 409.17,-23.05 414.28,-24.6 418.98,-26.2 423.27,-27.83 427.13,-29.51 430.58,-31.23 433.58,-32.98 436.16,-34.77 438.29,-36.6 439.99,-38.46 441.24,-40.36 442.06,-42.28 442.43,-44.24 442.38,-46.22 441.89,-48.24 440.98,-50.27 439.65,-52.33 437.91,-54.4 435.76,-56.49 433.21,-58.59 430.28,-60.69 426.97,-62.8 423.29,-64.9 419.25,-67 414.86,-69.08 410.14,-71.14 405.09,-73.18 399.73,-75.18 394.07,-77.14 388.13,-79.05 381.92,-80.91 375.45,-82.7 368.74,-84.43 361.8,-86.07 354.64,-87.63 347.29,-89.1 339.76,-90.46 332.06,-91.71 324.21,-92.85 316.23,-93.87 308.14,-94.75 299.95,-95.5 291.68,-96.1 283.35,-96.56 274.98,-96.87 266.59,-97.02 258.2,-97.01 249.83,-96.84 241.49,-96.51 233.22,-96.01 225.02,-95.35 216.93,-94.53 208.95,-93.54 201.13,-92.4 193.46,-91.09 185.99,-89.64 178.72,-88.03 171.68,-86.29 164.89,-84.4 158.38,-82.39 152.15,-80.26 146.24,-78.01 140.66,-75.66 135.43,-73.22 130.56,-70.69 126.09,-68.09 122.01,-65.42 118.36,-62.71 115.14,-59.95 112.36,-57.16"/>
<text text-anchor="middle" x="276.99" y="-44.71" font-family="sans-serif" font-size="16.00">VoyagePlanningContext</text>
</g>
<!-- CargoBookingContext&#45;&gt;VoyagePlanningContext -->
<g id="edge1" class="edge">
<title>CargoBookingContext&#45;&gt;VoyagePlanningContext</title>
<path fill="none" stroke="black" stroke-width="2" d="M202.79,-151.22C215.21,-134.19 229.72,-114.3 242.59,-96.66"/>
<text text-anchor="middle" x="270.99" y="-118.41" font-family="sans-serif" font-size="12.00">Shared Kernel</text>
</g>
<!-- LocationContext -->
<g id="node3" class="node">
<title>LocationContext</title>
<polygon fill="none" stroke="black" stroke-width="2" points="205.2,-371.24 198.5,-369.6 192.04,-367.88 185.85,-366.07 179.96,-364.19 174.39,-362.25 169.16,-360.24 164.29,-358.17 159.81,-356.06 155.73,-353.91 152.07,-351.72 148.84,-349.51 146.06,-347.28 143.73,-345.04 141.87,-342.79 140.47,-340.54 139.54,-338.29 139.08,-336.06 139.09,-333.84 139.57,-331.64 140.5,-329.47 141.89,-327.33 143.71,-325.23 145.96,-323.17 148.62,-321.15 151.68,-319.18 155.12,-317.27 158.93,-315.4 163.07,-313.6 167.53,-311.86 172.29,-310.18 177.33,-308.57 182.61,-307.02 188.13,-305.55 193.85,-304.16 199.74,-302.83 205.8,-301.59 211.98,-300.42 218.27,-299.34 224.65,-298.34 231.09,-297.43 237.57,-296.6 244.07,-295.86 250.57,-295.21 257.05,-294.65 263.49,-294.19 269.88,-293.82 276.21,-293.54 282.45,-293.37 288.59,-293.29 294.62,-293.31 300.54,-293.43 306.33,-293.66 311.98,-293.99 317.49,-294.42 322.84,-294.96 328.04,-295.6 333.08,-296.34 337.95,-297.19 342.65,-298.14 347.18,-299.2 351.54,-300.36 355.72,-301.62 359.72,-302.98 363.53,-304.44 367.17,-306 370.62,-307.65 373.88,-309.39 376.95,-311.21 379.83,-313.12 382.51,-315.11 385,-317.17 387.28,-319.3 389.36,-321.49 391.22,-323.74 392.87,-326.04 394.3,-328.39 395.5,-330.77 396.46,-333.19 397.19,-335.63 397.66,-338.09 397.89,-340.55 397.84,-343.01 397.53,-345.47 396.95,-347.91 396.08,-350.32 394.92,-352.7 393.46,-355.04 391.71,-357.33 389.64,-359.55 387.27,-361.72 384.58,-363.8 381.57,-365.81 378.25,-367.73 374.6,-369.54 370.65,-371.26 366.38,-372.87 361.8,-374.36 356.91,-375.72 351.74,-376.97 346.27,-378.08 340.53,-379.06 334.53,-379.9 328.28,-380.6 321.8,-381.16 315.11,-381.57 308.22,-381.84 301.16,-381.96 293.94,-381.94 286.6,-381.78 279.15,-381.47 271.63,-381.02 264.06,-380.43 256.47,-379.71 248.89,-378.86 241.34,-377.88 233.86,-376.78 226.48,-375.56 219.22,-374.22 212.12,-372.78 205.2,-371.24"/>
<text text-anchor="middle" x="277.99" y="-331.78" font-family="sans-serif" font-size="16.00">LocationContext</text>
</g>
<!-- LocationContext&#45;&gt;CargoBookingContext -->
<g id="edge2" class="edge">
<title>LocationContext&#45;&gt;CargoBookingContext</title>
<path fill="none" stroke="black" stroke-width="2" d="M238.32,-296.34C230.86,-288.33 223.39,-279.71 216.99,-271.15 209.88,-261.65 203.07,-250.89 197.02,-240.49"/>
<text text-anchor="middle" x="292.49" y="-261.55" font-family="sans-serif" font-size="12.00"> &#160;&#160;&#160;&#160;&#160;&#160;&#160;&#160;&#160;&#160;&#160;&#160;&#160;&#160;&#160;&#160;&#160;&#160;&#160;&#160;&#160;&#160;&#160;&#160;&#160;&#160;&#160;&#160;&#160;&#160;&#160;&#160;&#160;&#160;&#160;&#160;&#160;&#160;&#160;</text>
<polygon fill="white" stroke="transparent" points="190.02,-231.49 190.02,-248.49 204.02,-248.49 204.02,-231.49 190.02,-231.49"/>
<text text-anchor="start" x="192.02" y="-236.89" font-family="sans-serif" font-size="12.00">D</text>
<polygon fill="white" stroke="transparent" points="203.32,-286.34 203.32,-305.34 219.32,-305.34 219.32,-286.34 203.32,-286.34"/>
<polyline fill="none" stroke="black" points="219.32,-286.34 219.32,-305.34 "/>
<text text-anchor="start" x="206.32" y="-292.74" font-family="sans-serif" font-size="12.00">U</text>
<polygon fill="white" stroke="transparent" points="219.32,-286.34 219.32,-305.34 274.32,-305.34 274.32,-286.34 219.32,-286.34"/>
<polygon fill="none" stroke="black" points="219.32,-286.34 219.32,-305.34 274.32,-305.34 274.32,-286.34 219.32,-286.34"/>
<text text-anchor="start" x="222.32" y="-292.74" font-family="sans-serif" font-size="12.00">OHS, PL</text>
</g>
<!-- LocationContext&#45;&gt;VoyagePlanningContext -->
<g id="edge3" class="edge">
<title>LocationContext&#45;&gt;VoyagePlanningContext</title>
<path fill="none" stroke="black" stroke-width="2" d="M345.31,-298.63C354.44,-290.81 362.53,-281.67 367.99,-271.15 370.65,-266.02 368.32,-263.91 367.99,-258.15 365.09,-208.06 374.41,-192.27 354.99,-146.01 347.06,-127.14 334.28,-108.99 321.33,-93.62"/>
<text text-anchor="middle" x="442.49" y="-189.98" font-family="sans-serif" font-size="12.00"> &#160;&#160;&#160;&#160;&#160;&#160;&#160;&#160;&#160;&#160;&#160;&#160;&#160;&#160;&#160;&#160;&#160;&#160;&#160;&#160;&#160;&#160;&#160;&#160;&#160;&#160;&#160;&#160;&#160;&#160;&#160;&#160;&#160;&#160;&#160;&#160;&#160;&#160;&#160;</text>
<polygon fill="white" stroke="transparent" points="314.33,-84.62 314.33,-101.62 328.33,-101.62 328.33,-84.62 314.33,-84.62"/>
<text text-anchor="start" x="316.33" y="-90.02" font-family="sans-serif" font-size="12.00">D</text>
<polygon fill="white" stroke="transparent" points="310.31,-288.63 310.31,-307.63 326.31,-307.63 326.31,-288.63 310.31,-288.63"/>
<polyline fill="none" stroke="black" points="326.31,-288.63 326.31,-307.63 "/>
<text text-anchor="start" x="313.31" y="-295.03" font-family="sans-serif" font-size="12.00">U</text>
<polygon fill="white" stroke="transparent" points="326.31,-288.63 326.31,-307.63 381.31,-307.63 381.31,-288.63 326.31,-288.63"/>
<polygon fill="none" stroke="black" points="326.31,-288.63 326.31,-307.63 381.31,-307.63 381.31,-288.63 326.31,-288.63"/>
<text text-anchor="start" x="329.31" y="-295.03" font-family="sans-serif" font-size="12.00">OHS, PL</text>
</g>
</g>
</svg>
